<?xml version="1.0" encoding="UTF-8"?>
<svg xmlns="http://www.w3.org/2000/svg" xmlns:xlink="http://www.w3.org/1999/xlink" width="40px" height="35px" viewBox="0 0 300 329" version="1.1">
<g id="surface1">
<path style=" stroke:none;fill-rule:evenodd;fill:rgb(0%,0%,0%);fill-opacity:1;" d="M 20.253906 10.480469 C 18.503906 10.988281 15.925781 12.621094 14.527344 14.113281 L 11.980469 16.820312 L 11.675781 50.042969 L 11.375 83.269531 L 32.292969 83.269531 L 32.292969 31.226562 L 214.164062 31.226562 L 238.851562 53.707031 L 263.542969 76.191406 L 263.542969 149.5625 L 238.953125 170.019531 L 214.367188 190.480469 L 51.042969 190.480469 L 51.042969 212.339844 L 134.636719 212.28125 C 196.671875 212.238281 219.109375 211.902344 221.644531 210.980469 C 226.113281 209.355469 282.039062 162.757812 283.949219 159.070312 C 285.941406 155.21875 286.0625 70.5 284.078125 66.960938 C 281.46875 62.308594 224.617188 11.464844 220.832031 10.402344 C 216.210938 9.105469 24.738281 9.179688 20.253906 10.480469 M 65.863281 66.058594 C 62.292969 70.328125 59.375 74.003906 59.375 74.222656 C 59.375 74.441406 67.15625 81.136719 76.664062 89.09375 L 93.953125 103.566406 L 57.667969 103.839844 L 21.386719 104.117188 L 15.382812 110.054688 L 9.375 115.992188 L 9.375 302.445312 L 14.875 307.875 L 20.378906 313.304688 L 121.425781 313.304688 L 126.859375 307.804688 L 132.292969 302.308594 L 132.292969 235.238281 L 110.417969 235.238281 L 110.417969 291.445312 L 31.25 291.445312 L 31.25 125.945312 L 62.722656 125.945312 C 89.3125 125.945312 93.960938 126.164062 92.671875 127.359375 C 91.832031 128.140625 84.582031 134.28125 76.5625 141.007812 C 68.542969 147.734375 61.328125 153.851562 60.535156 154.601562 C 59.1875 155.878906 70.5625 171.746094 72.824219 171.746094 C 73.195312 171.746094 85.671875 161.453125 100.550781 148.871094 L 127.605469 126 L 138.867188 125.972656 L 150.132812 125.945312 L 132.617188 140.679688 C 122.984375 148.785156 114.992188 155.492188 114.851562 155.589844 C 114.714844 155.6875 117.75 159.5 121.597656 164.066406 L 128.597656 172.367188 L 183.519531 125.945312 L 195.664062 125.980469 C 205.410156 126.003906 207.492188 126.261719 206.195312 127.28125 C 196.972656 134.511719 172.910156 155.585938 173.140625 156.234375 C 173.632812 157.628906 185.640625 171.746094 186.332031 171.742188 C 186.6875 171.742188 199.871094 160.839844 215.625 147.515625 L 244.269531 123.285156 L 244.730469 106.691406 L 216.0625 82.75 C 200.292969 69.582031 187.023438 58.679688 186.570312 58.519531 C 185.820312 58.25 172.917969 73.085938 172.917969 74.21875 C 172.917969 74.621094 182.765625 83.039062 205.679688 102.230469 C 207.71875 103.941406 207.285156 104.019531 195.746094 104.054688 L 183.679688 104.085938 L 156.4375 81.1875 C 141.453125 68.59375 128.976562 58.289062 128.710938 58.289062 C 128.445312 58.289062 125.199219 61.882812 121.503906 66.273438 L 114.777344 74.257812 L 124.785156 82.667969 C 130.289062 87.292969 138.257812 94.003906 142.492188 97.582031 L 150.195312 104.085938 L 138.898438 104.046875 L 127.605469 104.003906 L 100.519531 81.160156 C 85.625 68.59375 73.191406 58.308594 72.894531 58.300781 C 72.59375 58.292969 69.429688 61.785156 65.863281 66.058594 "/>
</g>
</svg>
