<svg id="svg" xmlns="http://www.w3.org/2000/svg" xmlns:xlink="http://www.w3.org/1999/xlink" width="400" height="438.8888888888889" viewBox="0, 0, 400,438.8888888888889"><g id="svgg"><path id="path0" d="M27.007 13.984 C 24.673 14.662,21.236 16.843,19.368 18.830 L 15.972 22.442 15.570 66.777 L 15.167 111.111 29.111 111.111 L 43.056 111.111 43.056 76.389 L 43.056 41.667 164.303 41.667 L 285.551 41.667 318.470 71.666 L 351.389 101.666 351.389 150.616 L 351.389 199.566 318.606 226.867 L 285.824 254.167 176.940 254.167 L 68.056 254.167 68.056 268.750 L 68.056 283.333 179.514 283.255 C 262.229 283.197,292.147 282.749,295.527 281.519 C 301.484 279.351,376.054 217.176,378.598 212.256 C 381.257 207.116,381.415 94.070,378.770 89.351 C 375.290 83.140,299.488 15.300,294.444 13.882 C 288.283 12.150,32.982 12.247,27.007 13.984 M87.816 88.143 C 83.059 93.843,79.167 98.747,79.167 99.040 C 79.167 99.333,89.540 108.263,102.219 118.884 L 125.271 138.194 76.893 138.560 L 28.516 138.926 20.508 146.850 L 12.500 154.774 12.500 279.171 L 12.500 403.567 19.835 410.811 L 27.171 418.056 94.536 418.056 L 161.900 418.056 169.145 410.720 L 176.389 403.385 176.389 358.637 L 176.389 313.889 161.806 313.889 L 147.222 313.889 147.222 351.389 L 147.222 388.889 94.444 388.889 L 41.667 388.889 41.667 278.472 L 41.667 168.056 83.631 168.056 C 119.082 168.056,125.280 168.349,123.562 169.944 C 122.443 170.983,112.778 179.177,102.083 188.154 C 91.389 197.130,81.773 205.293,80.715 206.294 C 78.917 207.995,94.083 229.167,97.101 229.167 C 97.593 229.167,114.228 215.433,134.067 198.648 L 170.139 168.129 185.158 168.092 L 200.176 168.056 176.824 187.716 C 163.981 198.529,153.322 207.482,153.138 207.611 C 152.954 207.740,157.001 212.829,162.132 218.921 L 171.461 229.996 208.077 199.026 L 244.692 168.056 260.888 168.100 C 273.879 168.135,276.657 168.479,274.927 169.836 C 262.628 179.484,230.549 207.605,230.855 208.470 C 231.512 210.333,247.519 229.167,248.445 229.166 C 248.918 229.166,266.493 214.618,287.500 196.836 L 325.694 164.506 326.002 153.434 L 326.309 142.361 288.083 110.417 C 267.059 92.847,249.364 78.297,248.761 78.083 C 247.758 77.727,230.556 97.524,230.556 99.035 C 230.556 99.569,243.687 110.805,274.239 136.412 C 276.959 138.692,276.380 138.798,260.995 138.843 L 244.908 138.889 208.584 108.333 C 188.606 91.528,171.970 77.778,171.614 77.778 C 171.258 77.778,166.933 82.572,162.003 88.432 L 153.038 99.086 166.381 110.307 C 173.720 116.478,184.344 125.434,189.991 130.208 L 200.258 138.889 185.199 138.833 L 170.139 138.777 134.028 108.294 C 114.167 91.528,97.590 77.803,97.191 77.794 C 96.792 77.785,92.574 82.442,87.816 88.143 " stroke="none" fill="#000000" fill-rule="evenodd"></path></g></svg>